<?xml version="1.0"?>
<svg xmlns="http://www.w3.org/2000/svg" xmlns:xlink="http://www.w3.org/1999/xlink" version="1.1" id="Capa_1" x="0px" y="0px" viewBox="0 0 512 512" style="enable-background:new 0 0 512 512;" xml:space="preserve" width="512px" height="512px"><g><g>
	<g>
		<path d="M490.449,304.59l-10.766-6.579l10.766-6.622c28.674-17.525,28.737-47.373,0-64.936l-10.766-6.579l10.766-6.622    c28.749-17.57,28.649-59.264,0.036-76.75L279.407,6.676c-14.471-8.843-32.448-8.843-46.918,0    c-0.013,0.008-0.025,0.016-0.039,0.024L21.551,136.48c-28.741,17.565-28.656,59.26-0.039,76.748l10.803,6.647l-10.764,6.578    c-28.638,17.502-28.76,47.358-0.039,64.91l10.803,6.648l-10.764,6.578c-28.749,17.57-28.707,53.388-0.039,70.908l210.977,129.828    c14.315,8.747,32.292,8.938,46.954-0.022l211.006-129.781C519.185,357.961,519.182,322.151,490.449,304.59z M37.23,162.047    L248.168,32.244l-0.006,0.004c4.818-2.927,10.794-2.92,15.568-0.002L474.81,162.072c9.548,5.834,9.605,19.721-0.036,25.613    c-15.493,9.529-204.191,125.589-211.005,129.781c-4.825,2.948-10.816,2.947-15.599,0.024    c-9.422-5.798-202.548-124.64-210.977-129.828C27.643,181.827,27.584,167.942,37.23,162.047z M30.014,258.92    c0.015-0.503,1.337-3.308,7.177-6.877l23.781-14.534L232.49,343.055c14.346,8.766,32.324,8.917,46.953-0.023l171.576-105.529    l23.791,14.539c5.84,3.569,7.162,6.374,7.177,6.876c-0.015,0.506-1.338,3.311-7.214,6.902    c-15.495,9.53-204.19,125.589-211.005,129.781c-4.825,2.948-10.816,2.947-15.599,0.024    c-6.819-4.196-195.329-120.198-210.977-129.828C31.351,262.227,30.029,259.423,30.014,258.92z M474.774,349.953L263.767,479.735    c-4.823,2.948-10.815,2.947-15.599,0.024L37.19,349.931c-9.529-5.822-9.54-13.922,0-19.751l23.782-14.533L232.49,421.192    c14.366,8.778,32.343,8.906,46.953-0.023L451.019,315.64l23.791,14.54c4.562,2.787,7.177,6.386,7.177,9.875    S479.371,347.144,474.774,349.953z" data-original="#000000" class="active-path" data-old_color="#000000" fill="#FE9801"/>
	</g>
</g></g> </svg>
