<?xml version="1.0" encoding="iso-8859-1"?>
<!-- Generator: Adobe Illustrator 19.0.0, SVG Export Plug-In . SVG Version: 6.00 Build 0)  -->
<svg version="1.1" id="Layer_1" xmlns="http://www.w3.org/2000/svg" xmlns:xlink="http://www.w3.org/1999/xlink" x="0px" y="0px"
	 viewBox="0 0 512 512" style="enable-background:new 0 0 512 512;" xml:space="preserve">
<g>
	<g>
		<path d="M509.572,205.903c-6.315-6.315-38.835-37.816-58.945-37.816c-10.931,0-24.445,5.193-37.518,10.216
			c-9.122,3.504-19.463,7.478-24.409,7.478H345.54c-6.252-1.601-36.961-8.847-80.694-8.847c-36.425,0-71.318,23.539-105.064,46.302
			c-27.117,18.293-55.159,37.208-82.251,42.308C18.676,276.622,3.474,293.071,1.934,294.91c-2.068,2.47-2.518,5.914-1.156,8.833
			c1.365,2.918,4.294,4.784,7.515,4.784h85.967c20.706,0,40.765-7.42,56.486-20.896l31.814-27.268l1.422,2.845l-22.313,22.313
			c-1.555,1.555-2.428,3.665-2.428,5.864v34.13c0,10.144,8.253,18.397,18.397,18.397h7.59c4.581,0,8.294-3.713,8.294-8.294
			c0-4.58-3.712-8.294-8.294-8.294h-7.59c-0.997,0-1.809-0.812-1.809-1.809v-18.29c10.345-2.279,29.835-8.474,50.063-24.877
			l-4.59,25.246c-0.385,2.115,0.068,4.296,1.26,6.084l14.031,21.045c3.835,5.754,10.252,9.188,17.166,9.188h5.561
			c4.581,0,8.294-3.713,8.294-8.294c0-4.58-3.712-8.294-8.294-8.294h-5.561c-1.356,0-2.612-0.672-3.364-1.8l-5.687-8.53
			l30.643-37.112c22.101-0.922,43.426-2.5,59.094-4.808c-2.511,11.545-6.511,22.045-6.563,22.18c-0.365,0.95-0.553,1.96-0.553,2.977
			v27.074c0,9.156,7.449,16.606,16.606,16.606h9.381c4.581,0,8.294-3.713,8.294-8.294c0-4.58-3.712-8.294-8.294-8.294l-9.4-0.019
			v-23.486c8.065-7.229,18.808-16.811,29.411-26.182l27.885,30.115l4.093,20.465c1.817,9.093,9.867,15.693,19.141,15.693h8.491
			c4.581,0,8.294-3.713,8.294-8.294c0-4.58-3.712-8.294-8.294-8.294h-8.491c-1.393,0-2.602-0.991-2.875-2.358l-15.204-76.018
			c2.154-1.791,3.858-3.164,4.95-3.967c8.916-6.569,31.198-16.074,48.159-16.074h26.54c1.287,0,2.558-0.3,3.709-0.876l17.693-8.847
			c2.384-1.192,4.05-3.458,4.478-6.09C512.32,210.464,511.456,207.788,509.572,205.903z M240.195,296.406l2.842-15.634
			c3.374-0.046,6.785-0.107,10.218-0.184L240.195,296.406z M385.779,266.678c2.113-1.851,4.168-3.645,6.142-5.362l3.06,15.299
			L385.779,266.678z M484.056,212.32h-24.583c-19.638,0-45.397,10.023-58,19.31c-6.725,4.954-31.776,27.022-50.08,43.289
			c0.583-3.105,1.053-6.252,1.333-9.322c0.241-2.642-0.797-5.239-2.792-6.988c-1.995-1.748-4.702-2.436-7.294-1.853
			c-19.781,4.466-61.75,6.834-98.148,7.4c3.216-3.764,6.384-7.837,9.467-12.263c2.617-3.759,1.693-8.927-2.065-11.546
			c-3.761-2.62-8.929-1.693-11.546,2.065c-13.186,18.93-29.54,33.016-48.608,41.869c-3.247,1.507-6.289,2.716-9.072,3.699
			l17.271-17.27c2.523-2.525,3.151-6.381,1.553-9.573l-8.847-17.693c-1.141-2.285-3.273-3.916-5.777-4.421
			c-2.505-0.506-5.1,0.17-7.039,1.832l-39.879,34.181c-12.715,10.901-28.942,16.904-45.69,16.904H41.443
			c9.636-3.387,22.412-6.943,39.159-10.095c30.458-5.734,59.943-25.623,88.458-44.858c33.136-22.353,64.435-43.466,95.787-43.466
			c45.715,0,77.11,8.464,77.415,8.548c0.718,0.198,1.46,0.299,2.205,0.299H388.7c8.024,0,18.373-3.977,30.358-8.581
			c2.637-1.013,5.359-2.058,8.08-3.063c0.932,6.595,5.4,12.179,12.179,15.11c1.073,0.463,2.19,0.683,3.288,0.683
			c3.208,0,6.262-1.872,7.617-5.004c1.819-4.204-0.116-9.087-4.32-10.905c-1.034-0.447-2.282-1.217-2.354-2.348
			c-0.056-0.864,0.483-2.133,1.758-3.027c1.932-0.354,3.729-0.561,5.322-0.561c7.316,0,24.178,11.856,38.775,24.973L484.056,212.32z
			"/>
	</g>
</g>
<g>
</g>
<g>
</g>
<g>
</g>
<g>
</g>
<g>
</g>
<g>
</g>
<g>
</g>
<g>
</g>
<g>
</g>
<g>
</g>
<g>
</g>
<g>
</g>
<g>
</g>
<g>
</g>
<g>
</g>
</svg>
