<?xml version="1.0"?>
<svg xmlns="http://www.w3.org/2000/svg" height="512px" viewBox="0 0 60 36" width="512px"><g><g id="Page-1" fill="none" fill-rule="evenodd"><g id="053---Slow-Mo" fill="rgb(0,0,0)" fill-rule="nonzero"><path id="Shape" d="m42 0c-2.0396038.00424608-4.0634541.3573376-5.984 1.044-3.8788905-1.39203158-8.1211095-1.39203158-12 0-1.9304164-.69121412-3.9655648-1.04438815-6.016-1.044-9.9411255 0-18 8.0588745-18 18s8.0588745 18 18 18c2.0504352.0003882 4.0855836-.3527859 6.016-1.044 3.8788905 1.3920316 8.1211095 1.3920316 12 0 6.7535028 2.3864785 14.2792784.5397241 19.1609147-4.7019079 4.8816363-5.2416321 6.1891505-12.8795772 3.3289814-19.4465029-2.8601691-6.56692561-9.3431409-10.81179034-16.5058961-10.8075892zm-24 34c-8.43928069-.0138633-15.41809572-6.5774237-15.949-15h.949c.55228475 0 1-.4477153 1-1s-.44771525-1-1-1h-.949c.27692684-4.6179567 2.54463207-8.88835044 6.21525241-11.70415564 3.67062029-2.81580519 8.38271229-3.89975141 12.91474759-2.97084436-5.6699979 3.18001393-9.1806884 9.1741258-9.1806884 15.675s3.5106905 12.4949861 9.1806884 15.675c-1.0469159.2136595-2.1125071.3225301-3.181.325zm12 0c-8.4392807-.0138633-15.4180957-6.5774237-15.949-15h.949c.5522847 0 1-.4477153 1-1s-.4477153-1-1-1h-.949c.2769268-4.6179567 2.5446321-8.88835044 6.2152524-11.70415564 3.6706203-2.81580519 8.3827123-3.89975141 12.9147476-2.97084436-5.6699979 3.18001393-9.1806884 9.1741258-9.1806884 15.675s3.5106905 12.4949861 9.1806884 15.675c-1.0469159.2136595-2.1125071.3225301-3.181.325zm12 0c-8.836556 0-16-7.163444-16-16s7.163444-16 16-16 16 7.163444 16 16c-.0104696 8.8322157-7.1677843 15.9895304-16 16z" data-original="#000000" class="active-path" data-old_color="#000000" fill="#FCF876"/><path id="Shape" d="m42 4c-.5522847 0-1 .44771525-1 1s.4477153 1 1 1c6.627417 0 12 5.372583 12 12s-5.372583 12-12 12-12-5.372583-12-12c0-.5522847-.4477153-1-1-1s-1 .4477153-1 1c0 7.7319865 6.2680135 14 14 14s14-6.2680135 14-14-6.2680135-14-14-14z" data-original="#000000" class="active-path" data-old_color="#000000" fill="#FCF876"/><path id="Shape" d="m21 17h-2c-.5522847 0-1 .4477153-1 1s.4477153 1 1 1h2c.5522847 0 1-.4477153 1-1s-.4477153-1-1-1z" data-original="#000000" class="active-path" data-old_color="#000000" fill="#FCF876"/><path id="Shape" d="m9 17h-2c-.55228475 0-1 .4477153-1 1s.44771525 1 1 1h2c.55228475 0 1-.4477153 1-1s-.44771525-1-1-1z" data-original="#000000" class="active-path" data-old_color="#000000" fill="#FCF876"/></g></g></g> </svg>
