<?xml version="1.0"?>
<svg xmlns="http://www.w3.org/2000/svg" id="_x31_px" enable-background="new 0 0 24 24" height="512px" viewBox="0 0 24 24" width="512px"><g><path d="m12 24c-.276 0-.5-.224-.5-.5v-23c0-.276.224-.5.5-.5s.5.224.5.5v23c0 .276-.224.5-.5.5z" data-original="#000000" class="active-path" data-old_color="#000000" fill="#FC5185"/><path d="m12 10c-.058 0-.116-.01-.173-.031l-9.5-3.5c-.196-.072-.327-.26-.327-.469s.131-.397.327-.469l9.5-3.5c.257-.095.546.037.642.296s-.037.546-.296.642l-8.227 3.031 8.227 3.031c.259.096.392.383.296.642-.074.202-.266.327-.469.327z" data-original="#000000" class="active-path" data-old_color="#000000" fill="#FC5185"/><path d="m12 22c-.058 0-.116-.01-.173-.031l-9.5-3.5c-.196-.072-.327-.26-.327-.469v-12c0-.276.224-.5.5-.5s.5.224.5.5v11.651l9.173 3.379c.259.096.392.383.296.642-.074.203-.266.328-.469.328z" data-original="#000000" class="active-path" data-old_color="#000000" fill="#FC5185"/><path d="m13.172 9.568c-.203 0-.395-.125-.469-.327-.096-.259.037-.546.296-.642l.938-.346c.256-.095.546.037.642.296s-.037.546-.296.642l-.938.346c-.057.022-.116.031-.173.031zm2.814-1.037c-.203 0-.395-.125-.469-.327-.096-.259.037-.546.296-.642l.938-.346c.256-.094.546.037.642.296s-.037.546-.296.642l-.938.346c-.056.021-.115.031-.173.031zm2.816-1.037c-.203 0-.395-.125-.469-.327-.096-.259.037-.546.296-.642l.938-.346c.257-.096.546.037.642.296s-.037.546-.296.642l-.938.346c-.057.021-.116.031-.173.031zm2.582-1.037c-.058 0-.116-.01-.173-.031l-.938-.346c-.259-.096-.392-.383-.296-.642s.386-.391.642-.296l.938.346c.259.096.392.383.296.642-.075.202-.266.327-.469.327zm-2.816-1.037c-.058 0-.116-.01-.173-.031l-.938-.346c-.259-.096-.392-.383-.296-.642.096-.26.386-.39.642-.296l.938.346c.259.095.392.382.296.642-.074.202-.266.327-.469.327zm-2.815-1.037c-.058 0-.116-.01-.173-.031l-.938-.346c-.259-.096-.392-.383-.296-.642s.385-.391.642-.296l.938.346c.259.096.392.383.296.642-.075.202-.266.327-.469.327zm-2.815-1.037c-.058 0-.116-.01-.173-.031l-.938-.346c-.259-.096-.392-.383-.296-.642s.386-.391.642-.296l.938.346c.259.096.392.383.296.642-.074.202-.265.327-.469.327z" data-original="#000000" class="active-path" data-old_color="#000000" fill="#FC5185"/><path d="m12 22c-.203 0-.395-.125-.469-.327-.096-.259.037-.546.296-.642l.938-.346c.256-.095.546.037.642.296s-.037.546-.296.642l-.938.346c-.057.021-.115.031-.173.031zm2.815-1.037c-.203 0-.395-.125-.469-.327-.096-.259.037-.546.296-.642l.938-.346c.256-.094.546.037.642.296s-.037.546-.296.642l-.938.346c-.056.021-.115.031-.173.031zm2.815-1.037c-.203 0-.395-.125-.469-.327-.096-.259.037-.546.296-.642l.938-.346c.256-.096.546.037.642.296s-.037.547-.296.642l-.938.346c-.057.021-.115.031-.173.031zm2.815-1.037c-.203 0-.395-.125-.469-.327-.096-.259.037-.546.296-.642l.938-.346c.256-.095.546.037.642.296s-.037.546-.296.642l-.938.346c-.056.021-.115.031-.173.031zm1.055-2.265c-.276 0-.5-.224-.5-.5v-1c0-.276.224-.5.5-.5s.5.224.5.5v1c0 .276-.224.5-.5.5zm0-3c-.276 0-.5-.224-.5-.5v-1c0-.276.224-.5.5-.5s.5.224.5.5v1c0 .276-.224.5-.5.5zm0-3c-.276 0-.5-.224-.5-.5v-1c0-.276.224-.5.5-.5s.5.224.5.5v1c0 .276-.224.5-.5.5zm0-3c-.276 0-.5-.224-.5-.5v-1c0-.276.224-.5.5-.5s.5.224.5.5v1c0 .276-.224.5-.5.5z" data-original="#000000" class="active-path" data-old_color="#000000" fill="#FC5185"/></g> </svg>
