<?xml version="1.0"?>
<svg xmlns="http://www.w3.org/2000/svg" xmlns:xlink="http://www.w3.org/1999/xlink" version="1.1" id="Capa_1" x="0px" y="0px" viewBox="0 0 512 512" style="enable-background:new 0 0 512 512;" xml:space="preserve" width="512px" height="512px" class=""><g><g>
	<g>
		<path d="M404.782,31.868C387.621,13.574,364.334,3.5,339.21,3.5H172.79c-25.124,0-48.411,10.074-65.571,28.367    c-17.082,18.209-25.614,41.94-24.023,66.822l1.139,17.802c0.265,4.134,3.824,7.271,7.964,7.006    c4.134-0.265,7.27-3.831,7.005-7.964l-1.14-17.801c-1.323-20.701,5.777-40.448,19.994-55.602    c14.295-15.238,33.697-23.63,54.632-23.63h166.42c20.935,0,40.337,8.392,54.632,23.629c14.217,15.154,21.317,34.901,19.994,55.602    l-6.103,95.362c-0.265,4.134,2.872,7.699,7.006,7.964c0.163,0.01,0.324,0.016,0.485,0.016c3.924,0,7.224-3.051,7.478-7.021    l6.103-95.362C430.396,73.809,421.864,50.077,404.782,31.868z" data-original="#000000" class="active-path" data-old_color="#000000" fill="#FD5E53"/>
	</g>
</g><g>
	<g>
		<path d="M184.022,84.256h-12.408v-12.41c0-4.142-3.357-7.5-7.5-7.5s-7.5,3.358-7.5,7.5v12.41h-12.407c-4.143,0-7.5,3.358-7.5,7.5    c0,4.142,3.357,7.5,7.5,7.5h12.407v12.409c0,4.142,3.357,7.5,7.5,7.5s7.5-3.358,7.5-7.5V99.256h12.408c4.143,0,7.5-3.358,7.5-7.5    C191.522,87.614,188.165,84.256,184.022,84.256z" data-original="#000000" class="active-path" data-old_color="#000000" fill="#FD5E53"/>
	</g>
</g><g>
	<g>
		<path d="M367.793,84.256h-12.407v-12.41c0-4.142-3.357-7.5-7.5-7.5s-7.5,3.358-7.5,7.5v12.41h-12.408c-4.143,0-7.5,3.358-7.5,7.5    c0,4.142,3.357,7.5,7.5,7.5h12.408v12.409c0,4.142,3.357,7.5,7.5,7.5s7.5-3.358,7.5-7.5V99.256h12.407c4.143,0,7.5-3.358,7.5-7.5    C375.293,87.614,371.936,84.256,367.793,84.256z" data-original="#000000" class="active-path" data-old_color="#000000" fill="#FD5E53"/>
	</g>
</g><g>
	<g>
		<path d="M275.907,95.174H263.5v-12.41c0-4.142-3.357-7.5-7.5-7.5s-7.5,3.358-7.5,7.5v12.41h-12.407c-4.143,0-7.5,3.358-7.5,7.5    c0,4.142,3.357,7.5,7.5,7.5H248.5v12.41c0,4.142,3.357,7.5,7.5,7.5s7.5-3.358,7.5-7.5v-12.41h12.407c4.143,0,7.5-3.358,7.5-7.5    C283.407,98.532,280.05,95.174,275.907,95.174z" data-original="#000000" class="active-path" data-old_color="#000000" fill="#FD5E53"/>
	</g>
</g><g>
	<g>
		<path d="M193.838,241.702H181.43v-12.41c0-4.142-3.357-7.5-7.5-7.5s-7.5,3.358-7.5,7.5v12.41h-12.407c-4.143,0-7.5,3.358-7.5,7.5    c0,4.142,3.357,7.5,7.5,7.5h12.407v12.409c0,4.142,3.357,7.5,7.5,7.5s7.5-3.358,7.5-7.5v-12.409h12.408c4.143,0,7.5-3.358,7.5-7.5    C201.338,245.06,197.981,241.702,193.838,241.702z" data-original="#000000" class="active-path" data-old_color="#000000" fill="#FD5E53"/>
	</g>
</g><g>
	<g>
		<path d="M357.977,241.702H345.57v-12.41c0-4.142-3.357-7.5-7.5-7.5s-7.5,3.358-7.5,7.5v12.41h-12.408c-4.143,0-7.5,3.358-7.5,7.5    c0,4.142,3.357,7.5,7.5,7.5h12.408v12.409c0,4.142,3.358,7.5,7.5,7.5c4.143,0,7.5-3.358,7.5-7.5v-12.409h12.407    c4.143,0,7.5-3.358,7.5-7.5C365.477,245.06,362.12,241.702,357.977,241.702z" data-original="#000000" class="active-path" data-old_color="#000000" fill="#FD5E53"/>
	</g>
</g><g>
	<g>
		<path d="M275.907,257.757H263.5v-12.409c0-4.142-3.357-7.5-7.5-7.5s-7.5,3.358-7.5,7.5v12.409h-12.407c-4.143,0-7.5,3.358-7.5,7.5    c0,4.142,3.357,7.5,7.5,7.5H248.5v12.41c0,4.142,3.357,7.5,7.5,7.5s7.5-3.358,7.5-7.5v-12.41h12.407c4.143,0,7.5-3.358,7.5-7.5    C283.407,261.115,280.05,257.757,275.907,257.757z" data-original="#000000" class="active-path" data-old_color="#000000" fill="#FD5E53"/>
	</g>
</g><g>
	<g>
		<path d="M230.527,166.162h-12.408v-12.41c0-4.142-3.357-7.5-7.5-7.5s-7.5,3.358-7.5,7.5v12.41h-12.407c-4.143,0-7.5,3.358-7.5,7.5    c0,4.142,3.357,7.5,7.5,7.5h12.407v12.41c0,4.142,3.358,7.5,7.5,7.5c4.143,0,7.5-3.358,7.5-7.5v-12.41h12.408    c4.143,0,7.5-3.358,7.5-7.5C238.027,169.52,234.67,166.162,230.527,166.162z" data-original="#000000" class="active-path" data-old_color="#000000" fill="#FD5E53"/>
	</g>
</g><g>
	<g>
		<path d="M321.282,166.162h-12.408v-12.41c0-4.142-3.357-7.5-7.5-7.5s-7.5,3.358-7.5,7.5v12.41h-12.407c-4.143,0-7.5,3.358-7.5,7.5    c0,4.142,3.357,7.5,7.5,7.5h12.407v12.41c0,4.142,3.357,7.5,7.5,7.5s7.5-3.358,7.5-7.5v-12.41h12.408c4.143,0,7.5-3.358,7.5-7.5    C328.782,169.52,325.425,166.162,321.282,166.162z" data-original="#000000" class="active-path" data-old_color="#000000" fill="#FD5E53"/>
	</g>
</g><g>
	<g>
		<path d="M455.374,248.22h-36.138l1.327-20.737c0.265-4.134-2.872-7.699-7.006-7.964c-4.146-0.265-7.699,2.873-7.963,7.006    l-1.434,22.419c-20.227,3.709-35.608,21.457-35.608,42.741v50.291C342.9,339.901,304.483,337.73,256,337.73    c-48.483,0-86.9,2.171-112.552,4.247v-50.291c0-21.284-15.381-39.032-35.608-42.741l-6.469-101.083    c-0.265-4.132-3.831-7.265-7.963-7.006c-4.134,0.265-7.271,3.83-7.006,7.964l6.361,99.4H56.626C25.402,248.22,0,273.625,0,304.851    v10.062c0,17.761,14.448,32.21,32.208,32.21c6.808,0,12.347,5.54,12.347,12.349v38.089c0,31.279,24.238,56.986,54.914,59.367V501    c0,4.142,3.357,7.5,7.5,7.5H145.5c4.143,0,7.5-3.358,7.5-7.5v-43.88h20.93c4.143,0,7.5-3.358,7.5-7.5c0-4.142-3.357-7.5-7.5-7.5    h-30.481v-85.094c25.343-2.081,63.779-4.297,112.552-4.297c48.773,0,87.209,2.216,112.552,4.297v85.094H211    c-4.143,0-7.5,3.358-7.5,7.5c0,4.142,3.357,7.5,7.5,7.5h148V501c0,4.142,3.357,7.5,7.5,7.5h38.531c4.143,0,7.5-3.358,7.5-7.5    v-44.072c30.676-2.381,54.914-28.088,54.914-59.367v-38.089c0-6.809,5.539-12.349,12.347-12.349    c17.76,0,32.208-14.45,32.208-32.21v-10.062C512,273.625,486.598,248.22,455.374,248.22z M106.844,442.126h-2.729    c-24.57,0-44.561-19.992-44.561-44.565v-38.089c0-15.08-12.268-27.349-27.347-27.349c-9.488,0-17.208-7.721-17.208-17.21v-10.062    c0-22.955,18.673-41.631,41.626-41.631h43.36c15.694,0,28.462,12.77,28.462,28.466V442.12H106.97    C106.928,442.12,106.887,442.126,106.844,442.126z M138,493.5h-23.531v-36.374h21.479c0.039,0,0.077-0.005,0.116-0.006H138V493.5z     M397.531,493.5H374v-36.379h1.936c0.039,0.001,0.077,0.006,0.116,0.006h21.479V493.5z M479.792,332.123    c-15.079,0-27.347,12.269-27.347,27.349v38.089c0,24.573-19.99,44.565-44.561,44.565h-2.729c-0.042-0.001-0.083-0.006-0.126-0.006    H383.55V291.686c0-15.696,12.768-28.466,28.462-28.466h43.36c22.953,0,41.626,18.676,41.626,41.631v10.062H497    C497,324.403,489.28,332.123,479.792,332.123z" data-original="#000000" class="active-path" data-old_color="#000000" fill="#FD5E53"/>
	</g>
</g></g> </svg>
