<?xml version="1.0"?>
<svg xmlns="http://www.w3.org/2000/svg" xmlns:xlink="http://www.w3.org/1999/xlink" version="1.1" id="Layer_1" x="0px" y="0px" viewBox="0 0 512 512" style="enable-background:new 0 0 512 512;" xml:space="preserve" width="512px" height="512px"><g><g>
	<g>
		<path d="M449.742,63.062H62.258C27.929,63.062,0,90.99,0,125.319v261.362c0,34.329,27.929,62.257,62.258,62.257h387.484    c34.33,0,62.258-27.928,62.258-62.256V125.319C512,90.991,484.072,63.062,449.742,63.062z M491.102,386.682    c0,22.806-18.554,41.359-41.36,41.359H62.258c-22.806,0-41.36-18.553-41.36-41.359V125.319c0-22.806,18.554-41.359,41.36-41.359    h387.484c22.806,0,41.36,18.553,41.36,41.359V386.682z" data-original="#000000" class="active-path" data-old_color="#000000" fill="#46B5D1"/>
	</g>
</g><g>
	<g>
		<path d="M340.087,236.134l-118.853-82.284c-4.059-2.813-8.819-4.3-13.763-4.3c-3.893,0-7.772,0.955-11.217,2.764    c-7.981,4.192-12.939,12.392-12.939,21.402v164.571c0,9.005,4.956,17.205,12.959,21.412c3.445,1.799,7.32,2.751,11.204,2.751    c4.941,0,9.699-1.487,13.752-4.296l118.853-82.283c6.521-4.511,10.416-11.939,10.416-19.87    C350.498,248.07,346.604,240.642,340.087,236.134z M328.19,258.686l-118.862,82.289c-0.978,0.677-2.345,0.742-3.354,0.214    c-1.087-0.572-1.762-1.683-1.762-2.902V173.716c0-1.219,0.675-2.331,1.758-2.9c0.459-0.24,0.978-0.368,1.502-0.368    c0.467,0,1.17,0.1,1.862,0.581l118.861,82.289c0.88,0.608,1.405,1.611,1.405,2.683    C329.599,257.073,329.074,258.075,328.19,258.686z" data-original="#000000" class="active-path" data-old_color="#000000" fill="#46B5D1"/>
	</g>
</g><g>
	<g>
		<path d="M449.306,384.522h-4.678c-5.77,0-10.449,4.678-10.449,10.449s4.679,10.449,10.449,10.449h4.678    c5.77,0,10.449-4.678,10.449-10.449S455.076,384.522,449.306,384.522z" data-original="#000000" class="active-path" data-old_color="#000000" fill="#46B5D1"/>
	</g>
</g><g>
	<g>
		<path d="M410.825,384.522H309.333c-5.77,0-10.449,4.678-10.449,10.449s4.679,10.449,10.449,10.449h101.492    c5.77,0,10.449-4.678,10.449-10.449S416.595,384.522,410.825,384.522z" data-original="#000000" class="active-path" data-old_color="#000000" fill="#46B5D1"/>
	</g>
</g></g> </svg>
